<?xml version="1.0" standalone="no"?>
<!DOCTYPE svg PUBLIC "-//W3C//DTD SVG 20010904//EN"
 "http://www.w3.org/TR/2001/REC-SVG-20010904/DTD/svg10.dtd">
<svg version="1.0" xmlns="http://www.w3.org/2000/svg"
 width="98.000000pt" height="97.000000pt" viewBox="0 0 98.000000 97.000000"
 preserveAspectRatio="xMidYMid meet">

<g transform="translate(0.000000,97.000000) scale(0.100000,-0.100000)"
fill="#000000" stroke="none">
<path d="M511 962 c-8 -3 -7 -8 6 -18 10 -7 13 -14 6 -14 -8 0 -10 -36 -8
-127 2 -78 -1 -133 -7 -140 -8 -10 4 -13 56 -13 l67 0 -3 -37 -3 -38 -57 -3
c-60 -3 -65 -6 -48 -32 7 -12 3 -16 -23 -21 -25 -5 -18 -7 31 -9 34 -1 68 -3
75 -4 6 0 13 -18 15 -38 l3 -38 -54 0 -54 0 1 -172 c1 -95 5 -179 9 -185 6 -9
3 -11 -10 -6 -15 5 -16 3 -6 -7 10 -11 10 -17 -2 -30 -13 -15 -9 -16 56 -9
269 29 463 316 394 582 -47 180 -204 328 -376 355 -30 4 -61 6 -68 4z"/>
</g>
</svg>
