<?xml version="1.0" standalone="no"?>
<!DOCTYPE svg PUBLIC "-//W3C//DTD SVG 20010904//EN"
 "http://www.w3.org/TR/2001/REC-SVG-20010904/DTD/svg10.dtd">
<svg version="1.0" xmlns="http://www.w3.org/2000/svg"
 width="239.000000pt" height="100.000000pt" viewBox="0 0 239.000000 100.000000"
 preserveAspectRatio="xMidYMid meet">

<g transform="translate(0.000000,100.000000) scale(0.100000,-0.100000)"
fill="#fff" stroke="none">
<path d="M430 500 l0 -490 60 0 60 0 0 490 0 490 -60 0 -60 0 0 -490z"/>
<path d="M1860 500 l0 -490 50 0 50 0 0 490 0 490 -50 0 -50 0 0 -490z"/>
<path d="M270 500 l0 -390 60 0 60 0 0 390 0 390 -60 0 -60 0 0 -390z"/>
<path d="M1990 500 l0 -390 60 0 60 0 0 43 c1 181 1 715 1 725 -1 8 -20 12
-61 12 l-60 0 0 -390z"/>
<path d="M110 500 l0 -290 59 0 c51 0 59 3 64 20 3 12 6 142 6 290 l1 270 -65
0 -65 0 0 -290z"/>
<path d="M2150 500 l0 -290 60 0 60 0 0 290 0 290 -60 0 -60 0 0 -290z"/>
<path d="M1670 599 c-34 -7 -71 -40 -69 -63 2 -33 20 -52 70 -71 65 -25 80
-55 27 -55 -18 0 -44 7 -57 17 -23 15 -25 15 -37 -2 -20 -27 -18 -31 20 -49
69 -32 152 -14 169 37 13 40 -11 72 -73 92 -48 16 -65 37 -37 48 7 3 31 -1 52
-9 22 -7 40 -12 41 -11 10 13 12 47 3 52 -23 15 -75 21 -109 14z"/>
<path d="M620 480 l0 -120 30 0 c29 0 30 2 30 45 l0 45 55 0 c52 0 55 1 55 25
0 24 -3 25 -55 25 -52 0 -55 1 -55 25 0 22 4 24 58 27 50 3 57 6 60 26 3 21 1
22 -87 22 l-91 0 0 -120z"/>
<path d="M869 585 c-15 -8 -34 -31 -44 -51 -25 -52 -15 -101 30 -141 29 -27
43 -33 80 -33 87 0 135 47 135 131 0 35 -6 47 -36 75 -31 30 -42 34 -87 34
-29 -1 -64 -7 -78 -15z m121 -55 c26 -26 25 -68 -2 -97 -61 -65 -153 31 -93
97 23 26 69 26 95 0z"/>
<path d="M1148 584 c-53 -28 -73 -105 -43 -164 29 -56 113 -77 175 -45 35 18
36 22 14 46 -15 17 -18 17 -40 2 -52 -34 -115 18 -98 80 12 41 51 56 97 39 26
-10 34 -9 47 4 13 14 13 17 -9 35 -28 23 -103 25 -143 3z"/>
<path d="M1342 505 c4 -117 17 -136 102 -143 51 -4 57 -2 86 26 29 29 30 33
30 121 l0 91 -30 0 -30 0 0 -83 c0 -88 -8 -107 -46 -107 -42 0 -54 25 -54 111
l0 79 -31 0 -31 0 4 -95z"/>
<path d="M11 552 c-6 -2 -11 -26 -11 -53 l0 -49 41 0 40 0 -3 52 c-3 48 -5 51
-30 52 -14 1 -31 0 -37 -2z"/>
<path d="M2308 503 l-3 -53 38 0 37 0 0 53 0 52 -34 0 -34 1 -4 -53z"/>
</g>
</svg>
